<?xml version="1.0" standalone="no"?>
<!DOCTYPE svg PUBLIC "-//W3C//DTD SVG 20010904//EN"
 "http://www.w3.org/TR/2001/REC-SVG-20010904/DTD/svg10.dtd">
<svg version="1.0" xmlns="http://www.w3.org/2000/svg"
 width="477.000000pt" height="477.000000pt" viewBox="0 0 477.000000 477.000000"
 preserveAspectRatio="xMidYMid meet">
<metadata>
Created by potrace 1.14, written by Peter Selinger 2001-2017
</metadata>
<g transform="translate(0.000000,477.000000) scale(0.100000,-0.100000)"
fill="#000000" stroke="none">
<path d="M921 4208 c-79 -9 -189 -68 -245 -129 -68 -74 -99 -142 -113 -239 -8
-57 -8 -2863 0 -2910 31 -184 177 -331 357 -357 30 -5 701 -8 1490 -8 1359 1
1438 2 1488 19 96 33 155 73 213 146 44 56 75 121 86 186 9 48 10 2924 1 2954
-2 8 -8 26 -12 40 -29 97 -124 212 -208 253 -114 54 -28 51 -1568 52 -789 0
-1459 -3 -1489 -7z"/>
</g>
</svg>
